<?xml version="1.0" standalone="no"?>
<!DOCTYPE svg PUBLIC "-//W3C//DTD SVG 20010904//EN"
 "http://www.w3.org/TR/2001/REC-SVG-20010904/DTD/svg10.dtd">
<svg version="1.0" xmlns="http://www.w3.org/2000/svg"
 width="500.000000pt" height="500.000000pt" viewBox="0 0 500.000000 500.000000"
 preserveAspectRatio="xMidYMid meet">
<metadata>
Created by potrace 1.14, written by Peter Selinger 2001-2017
</metadata>
<g transform="translate(0.000000,500.000000) scale(0.100000,-0.100000)"
fill="#000000" stroke="none">
<path d="M2009 3665 c-2 -1 -26 -6 -54 -9 -110 -15 -248 -57 -348 -107 -359
-179 -552 -508 -555 -946 -3 -410 178 -731 504 -896 48 -25 158 -65 197 -73
10 -2 28 -6 39 -10 142 -45 588 -36 718 14 25 9 48 9 105 -2 17 -4 50 -9 75
-12 25 -3 64 -9 88 -13 47 -9 408 -6 462 3 204 37 322 79 440 154 124 79 224
186 293 312 34 61 75 157 82 190 2 8 11 44 20 80 23 92 28 340 9 450 -55 321
-227 564 -504 713 -117 63 -299 118 -440 135 -121 14 -398 7 -503 -12 -54 -10
-105 -15 -115 -11 -58 22 -186 37 -338 40 -95 2 -174 2 -175 0z m354 -391 c83
-15 90 -18 99 -45 5 -16 11 -29 12 -29 1 0 35 11 76 24 128 40 233 56 379 57
349 2 587 -159 667 -451 28 -101 25 -310 -4 -415 -34 -117 -76 -190 -157 -270
-75 -75 -156 -121 -261 -151 -76 -22 -289 -28 -364 -11 l-55 12 -3 213 -2 212
157 0 158 0 0 178 0 177 -377 1 -378 2 0 -405 0 -405 -142 5 c-153 5 -230 21
-313 63 -155 80 -253 203 -300 379 -23 84 -28 281 -10 375 50 254 205 421 447
481 94 23 256 24 371 3z"/>
</g>
</svg>
